<svg xmlns="http://www.w3.org/2000/svg">
  <symbol id="icon-award" viewBox="0 0 24 24"><circle cx="12" cy="8" r="4"/><path d="m9 12-2 8 5-3 5 3-2-8"/></symbol>
  <symbol id="icon-book" viewBox="0 0 24 24"><path d="M3.5 5.5c3-1.2 5.8-.7 8.5 1.5v12c-2.7-2.2-5.5-2.7-8.5-1.5v-12ZM20.5 5.5c-3-1.2-5.8-.7-8.5 1.5v12c2.7-2.2 5.5-2.7 8.5-1.5v-12Z"/></symbol>
  <symbol id="icon-box" viewBox="0 0 24 24"><path d="m4 7 8-4 8 4-8 4-8-4Z"/><path d="M4 7v10l8 4 8-4V7M12 11v10"/></symbol>
  <symbol id="icon-car" viewBox="0 0 24 24"><path d="m5 16-1-2 2-6h12l2 6-1 2"/><path d="M3 16h18v3H3z"/><circle cx="7" cy="19" r="1.5"/><circle cx="17" cy="19" r="1.5"/></symbol>
  <symbol id="icon-check" viewBox="0 0 24 24"><circle cx="12" cy="12" r="9"/><path d="m8 12 2.5 2.5L16 9"/></symbol>
  <symbol id="icon-cheese" viewBox="0 0 24 24"><path d="M3 10 15 4l6 5v10H3V10Z"/><path d="M3 10h18M14 13h.01M8 15h.01M17 17h.01"/></symbol>
  <symbol id="icon-clock" viewBox="0 0 24 24"><circle cx="12" cy="12" r="9"/><path d="M12 7v5l3 2"/></symbol>
  <symbol id="icon-cloud" viewBox="0 0 24 24"><path d="M6 18h11a4 4 0 0 0 .5-8 6 6 0 0 0-11-1A4.5 4.5 0 0 0 6 18Z"/></symbol>
  <symbol id="icon-droplet" viewBox="0 0 24 24"><path d="M12 3s6 6.5 6 11a6 6 0 0 1-12 0c0-4.5 6-11 6-11Z"/></symbol>
  <symbol id="icon-eye" viewBox="0 0 24 24"><path d="M3 12s3.5-6 9-6 9 6 9 6-3.5 6-9 6-9-6-9-6Z"/><circle cx="12" cy="12" r="2.5"/></symbol>
  <symbol id="icon-flask" viewBox="0 0 24 24"><path d="M9 3h6M10 3v6l-5 9a2 2 0 0 0 2 3h10a2 2 0 0 0 2-3l-5-9V3"/><path d="M7.5 16h9"/></symbol>
  <symbol id="icon-flower" viewBox="0 0 24 24"><circle cx="12" cy="12" r="2"/><circle cx="12" cy="6.5" r="3"/><circle cx="17.2" cy="10.3" r="3"/><circle cx="15.2" cy="16.3" r="3"/><circle cx="8.8" cy="16.3" r="3"/><circle cx="6.8" cy="10.3" r="3"/></symbol>
  <symbol id="icon-gift" viewBox="0 0 24 24"><path d="M4 10h16v11H4zM3 7h18v3H3zM12 7v14"/><path d="M12 7H8.5A2.5 2.5 0 1 1 11 4.5L12 7ZM12 7h3.5A2.5 2.5 0 1 0 13 4.5L12 7Z"/></symbol>
  <symbol id="icon-globe" viewBox="0 0 24 24"><circle cx="12" cy="12" r="9"/><path d="M3 12h18M12 3c3 3 3 15 0 18M12 3c-3 3-3 15 0 18"/></symbol>
  <symbol id="icon-leaf" viewBox="0 0 24 24"><path d="M20 4C11 4 5 8 5 15c0 3 2 5 5 5 7 0 10-7 10-16Z"/><path d="M4 21c3-5 7-8 12-11"/></symbol>
  <symbol id="icon-mail" viewBox="0 0 24 24"><rect x="3" y="5" width="18" height="14" rx="2"/><path d="m4 7 8 6 8-6"/></symbol>
  <symbol id="icon-map-pin" viewBox="0 0 24 24"><path d="M20 10c0 5-8 11-8 11S4 15 4 10a8 8 0 1 1 16 0Z"/><circle cx="12" cy="10" r="2.5"/></symbol>
  <symbol id="icon-medal" viewBox="0 0 24 24"><circle cx="12" cy="14" r="5"/><path d="m8 3 4 6 4-6M8 3h3l1 6M16 3h-3l-1 6"/></symbol>
  <symbol id="icon-mountain" viewBox="0 0 24 24"><path d="m3 19 6-10 3 4 3-6 6 12H3Z"/><path d="m7.5 11.5 1.5 1 1.5-1"/></symbol>
  <symbol id="icon-newspaper" viewBox="0 0 24 24"><path d="M4 5.5h13v13H5.5A1.5 1.5 0 0 1 4 17V5.5Z"/><path d="M17 8h3v9a1.5 1.5 0 0 1-1.5 1.5H17M7 9h7M7 12h7M7 15h4"/></symbol>
  <symbol id="icon-phone" viewBox="0 0 24 24"><path d="M7 3 4 5c0 8 7 15 15 15l2-3-5-3-2 2c-3-1-5-3-6-6l2-2-3-5Z"/></symbol>
  <symbol id="icon-restaurant" viewBox="0 0 24 24"><path d="M6 3v8M3 3v5a3 3 0 0 0 6 0V3M6 11v10M15 3v18M15 3c4 1 6 4 6 8h-6"/></symbol>
  <symbol id="icon-snowflake" viewBox="0 0 24 24"><path d="M12 2v20M4 7l16 10M4 17 20 7M9 4l3 3 3-3M9 20l3-3 3 3M4 11l4 1-1 4M20 13l-4-1 1-4"/></symbol>
  <symbol id="icon-star" viewBox="0 0 24 24"><path d="m12 3 2.8 5.7 6.2.9-4.5 4.4 1.1 6.2-5.6-2.9-5.6 2.9 1.1-6.2L3 9.6l6.2-.9L12 3Z"/></symbol>
  <symbol id="icon-sun" viewBox="0 0 24 24"><circle cx="12" cy="12" r="4"/><path d="M12 2v2M12 20v2M2 12h2M20 12h2M5 5l1.5 1.5M17.5 17.5 19 19M19 5l-1.5 1.5M6.5 17.5 5 19"/></symbol>
  <symbol id="icon-thermometer" viewBox="0 0 24 24"><path d="M10 14.8V5a2 2 0 1 1 4 0v9.8a4 4 0 1 1-4 0Z"/><path d="M12 8v9"/></symbol>
  <symbol id="icon-train" viewBox="0 0 24 24"><rect x="5" y="3" width="14" height="15" rx="3"/><path d="M8 21l2-3M16 21l-2-3M5 11h14M8 7h8M8 15h.01M16 15h.01"/></symbol>
  <symbol id="icon-trees" viewBox="0 0 24 24"><path d="m8 3-5 9h3l-3 5h10l-3-5h3L8 3ZM17 7l-4 7h2l-2 4h8l-2-4h2l-4-7ZM8 17v4M17 18v3"/></symbol>
  <symbol id="icon-wind" viewBox="0 0 24 24"><path d="M3 8h11a3 3 0 1 0-3-3M3 12h16a2 2 0 1 1-2 2M3 16h8"/></symbol>
</svg>
